BodoniModa-Black.ufo
<glyph name="at" format="2">
  <advance width="2018"/>
  <unicode hex="0040"/>
  <outline>
    <contour>
      <point x="838" y="-428" type="curve" smooth="yes"/>
      <point x="1164" y="-428"/>
      <point x="1402" y="-324"/>
      <point x="1570" y="-128" type="curve"/>
      <point x="1524" y="-82" type="line"/>
      <point x="1344" y="-278"/>
      <point x="1150" y="-356"/>
      <point x="838" y="-356" type="curve" smooth="yes"/>
      <point x="504" y="-356"/>
      <point x="184" y="-172"/>
      <point x="184" y="422" type="curve" smooth="yes"/>
      <point x="184" y="1012"/>
      <point x="624" y="1508"/>
      <point x="1168" y="1508" type="curve" smooth="yes"/>
      <point x="1640" y="1508"/>
      <point x="1836" y="1142"/>
      <point x="1836" y="802" type="curve" smooth="yes"/>
      <point x="1836" y="494"/>
      <point x="1658" y="248"/>
      <point x="1482" y="248" type="curve" smooth="yes"/>
      <point x="1418" y="248"/>
      <point x="1440" y="322"/>
      <point x="1460" y="420" type="curve" smooth="yes"/>
      <point x="1604" y="1040" type="line"/>
      <point x="1184" y="1040" type="line"/>
      <point x="1040" y="420" type="line" smooth="yes"/>
      <point x="1012" y="296"/>
      <point x="1024" y="136"/>
      <point x="1322" y="136" type="curve" smooth="yes"/>
      <point x="1724" y="136"/>
      <point x="1910" y="462"/>
      <point x="1910" y="802" type="curve" smooth="yes"/>
      <point x="1910" y="1168"/>
      <point x="1676" y="1580"/>
      <point x="1170" y="1580" type="curve" smooth="yes"/>
      <point x="584" y="1580"/>
      <point x="108" y="1048"/>
      <point x="108" y="422" type="curve" smooth="yes"/>
      <point x="108" y="-204"/>
      <point x="472" y="-428"/>
    </contour>
    <contour>
      <point x="728" y="140" type="curve" smooth="yes"/>
      <point x="988" y="140"/>
      <point x="1144" y="388"/>
      <point x="1144" y="712" type="curve" smooth="yes"/>
      <point x="1144" y="876"/>
      <point x="1096" y="1060"/>
      <point x="914" y="1060" type="curve" smooth="yes"/>
      <point x="616" y="1060"/>
      <point x="408" y="760"/>
      <point x="408" y="460" type="curve" smooth="yes"/>
      <point x="408" y="252"/>
      <point x="530" y="140"/>
    </contour>
    <contour>
      <point x="928" y="308" type="curve" smooth="yes"/>
      <point x="880" y="308"/>
      <point x="850" y="380"/>
      <point x="850" y="514" type="curve" smooth="yes"/>
      <point x="850" y="762"/>
      <point x="950" y="892"/>
      <point x="1016" y="892" type="curve" smooth="yes"/>
      <point x="1070" y="892"/>
      <point x="1078" y="776"/>
      <point x="1078" y="692" type="curve" smooth="yes"/>
      <point x="1078" y="436"/>
      <point x="990" y="308"/>
    </contour>
  </outline>
</glyph>
<glyph name="C" format="2">
  <advance width="1468"/>
  <unicode hex="0043"/>
  <anchor x="866" y="0" name="bottom"/>
  <anchor x="840" y="1500" name="top"/>
  <outline>
    <contour>
      <point x="840" y="-20" type="curve" smooth="yes"/>
      <point x="965" y="-20"/>
      <point x="1065" y="19"/>
      <point x="1148" y="87" type="curve"/>
      <point x="1326" y="0" type="line"/>
      <point x="1392" y="0" type="line"/>
      <point x="1392" y="472" type="line"/>
      <point x="1316" y="472" type="line"/>
      <point x="1170" y="244"/>
      <point x="1114" y="72"/>
      <point x="860" y="72" type="curve" smooth="yes"/>
      <point x="612" y="72"/>
      <point x="550" y="386"/>
      <point x="550" y="750" type="curve" smooth="yes"/>
      <point x="550" y="1114"/>
      <point x="612" y="1428"/>
      <point x="860" y="1428" type="curve" smooth="yes"/>
      <point x="1052" y="1428"/>
      <point x="1150" y="1278"/>
      <point x="1296" y="1028" type="curve"/>
      <point x="1370" y="1028" type="line"/>
      <point x="1370" y="1500" type="line"/>
      <point x="1308" y="1500" type="line"/>
      <point x="1121" y="1410" type="line"/>
      <point x="1044" y="1480"/>
      <point x="953" y="1520"/>
      <point x="840" y="1520" type="curve" smooth="yes"/>
      <point x="354" y="1520"/>
      <point x="80" y="1194"/>
      <point x="80" y="750" type="curve" smooth="yes"/>
      <point x="80" y="306"/>
      <point x="354" y="-20"/>
    </contour>
  </outline>
</glyph>
<glyph name="F" format="2">
  <advance width="1278"/>
  <unicode hex="0046"/>
  <anchor x="416" y="0" name="bottom"/>
  <anchor x="684" y="1500" name="top"/>
  <outline>
    <contour>
      <point x="888" y="456" type="curve"/>
      <point x="960" y="456" type="line"/>
      <point x="960" y="1024" type="line"/>
      <point x="888" y="1024" type="line"/>
      <point x="828" y="890"/>
      <point x="750" y="784"/>
      <point x="616" y="784" type="curve" smooth="yes"/>
      <point x="486" y="784" type="line"/>
      <point x="486" y="708" type="line"/>
      <point x="616" y="708" type="line" smooth="yes"/>
      <point x="750" y="708"/>
      <point x="828" y="590"/>
    </contour>
    <contour>
      <point x="1220" y="1500" type="line"/>
      <point x="28" y="1500" type="line"/>
      <point x="28" y="1428" type="line"/>
      <point x="210" y="1428" type="line"/>
      <point x="210" y="72" type="line"/>
      <point x="28" y="72" type="line"/>
      <point x="28" y="0" type="line"/>
      <point x="840" y="0" type="line"/>
      <point x="840" y="72" type="line"/>
      <point x="640" y="72" type="line"/>
      <point x="640" y="1428" type="line"/>
      <point x="746" y="1428" type="line" smooth="yes"/>
      <point x="960" y="1428"/>
      <point x="1086" y="1304"/>
      <point x="1146" y="1090" type="curve"/>
      <point x="1220" y="1090" type="line"/>
    </contour>
  </outline>
</glyph>
<glyph name="J" format="2">
  <advance width="1280"/>
  <unicode hex="004A"/>
  <anchor x="438" y="0" name="bottom"/>
  <anchor x="806" y="1500" name="top"/>
  <outline>
    <contour>
      <point x="1248" y="1500" type="line"/>
      <point x="359" y="1500" type="line"/>
      <point x="359" y="1427" type="line"/>
      <point x="619" y="1427" type="line"/>
      <point x="619" y="380" type="line" smooth="yes"/>
      <point x="619" y="101"/>
      <point x="582" y="14"/>
      <point x="409" y="14" type="curve" smooth="yes"/>
      <point x="358" y="14"/>
      <point x="298" y="26"/>
      <point x="244" y="50" type="curve"/>
      <point x="243" y="46"/>
      <point x="243" y="42"/>
      <point x="242" y="38" type="curve"/>
      <point x="377" y="29"/>
      <point x="503" y="121"/>
      <point x="503" y="263" type="curve" smooth="yes"/>
      <point x="503" y="405"/>
      <point x="380" y="495"/>
      <point x="260" y="495" type="curve" smooth="yes"/>
      <point x="129" y="495"/>
      <point x="16" y="394"/>
      <point x="16" y="250" type="curve" smooth="yes"/>
      <point x="16" y="50"/>
      <point x="214" y="-61"/>
      <point x="468" y="-61" type="curve" smooth="yes"/>
      <point x="766" y="-61"/>
      <point x="938" y="99"/>
      <point x="1048" y="340" type="curve"/>
      <point x="1048" y="1427" type="line"/>
      <point x="1248" y="1427" type="line"/>
    </contour>
  </outline>
</glyph>
<glyph name="T" format="2">
  <advance width="1448"/>
  <unicode hex="0054"/>
  <anchor x="725" y="0" name="bottom"/>
  <anchor x="734" y="1500" name="top"/>
  <outline>
    <contour>
      <point x="290" y="0" type="line"/>
      <point x="1160" y="0" type="line"/>
      <point x="1160" y="72" type="line"/>
      <point x="940" y="72" type="line"/>
      <point x="940" y="1428" type="line"/>
      <point x="968" y="1428" type="line" smooth="yes"/>
      <point x="1160" y="1428"/>
      <point x="1288" y="1244"/>
      <point x="1348" y="990" type="curve"/>
      <point x="1420" y="990" type="line"/>
      <point x="1420" y="1500" type="line"/>
      <point x="28" y="1500" type="line"/>
      <point x="28" y="990" type="line"/>
      <point x="104" y="990" type="line"/>
      <point x="164" y="1244"/>
      <point x="292" y="1428"/>
      <point x="484" y="1428" type="curve" smooth="yes"/>
      <point x="510" y="1428" type="line"/>
      <point x="510" y="72" type="line"/>
      <point x="290" y="72" type="line"/>
    </contour>
  </outline>
</glyph>
<glyph name="bracketright" format="2">
  <advance width="768"/>
  <unicode hex="005D"/>
  <outline>
    <contour>
      <point x="242" y="-300" type="line"/>
      <point x="662" y="-300" type="line"/>
      <point x="662" y="1560" type="line"/>
      <point x="242" y="1560" type="line"/>
    </contour>
    <contour>
      <point x="60" y="-300" type="line"/>
      <point x="662" y="-300" type="line"/>
      <point x="662" y="-226" type="line"/>
      <point x="60" y="-226" type="line"/>
    </contour>
    <contour>
      <point x="60" y="1488" type="line"/>
      <point x="662" y="1488" type="line"/>
      <point x="662" y="1560" type="line"/>
      <point x="60" y="1560" type="line"/>
    </contour>
  </outline>
</glyph>
<glyph name="h" format="2">
  <advance width="1328"/>
  <unicode hex="0068"/>
  <anchor x="666" y="0" name="bottom"/>
  <anchor x="720" y="1420" name="top"/>
  <outline>
    <contour>
      <point x="28" y="0" type="line"/>
      <point x="630" y="0" type="line"/>
      <point x="630" y="72" type="line"/>
      <point x="550" y="72" type="line"/>
      <point x="550" y="1500" type="line"/>
      <point x="28" y="1500" type="line"/>
      <point x="28" y="1428" type="line"/>
      <point x="170" y="1428" type="line"/>
      <point x="170" y="72" type="line"/>
      <point x="28" y="72" type="line"/>
    </contour>
    <contour>
      <point x="700" y="0" type="line"/>
      <point x="1300" y="0" type="line"/>
      <point x="1300" y="72" type="line"/>
      <point x="1160" y="72" type="line"/>
      <point x="1160" y="640" type="line" smooth="yes"/>
      <point x="1160" y="814"/>
      <point x="1088" y="940"/>
      <point x="860" y="940" type="curve" smooth="yes"/>
      <point x="574" y="940"/>
      <point x="486" y="648"/>
      <point x="486" y="444" type="curve"/>
      <point x="550" y="444" type="line"/>
      <point x="550" y="650"/>
      <point x="646" y="776"/>
      <point x="708" y="776" type="curve" smooth="yes"/>
      <point x="764" y="776"/>
      <point x="780" y="752"/>
      <point x="780" y="584" type="curve" smooth="yes"/>
      <point x="780" y="72" type="line"/>
      <point x="700" y="72" type="line"/>
    </contour>
  </outline>
</glyph>
<glyph name="l" format="2">
  <advance width="798"/>
  <unicode hex="006C"/>
  <anchor x="406" y="0" name="bottom"/>
  <anchor x="406" y="0" name="cedilla"/>
  <anchor x="402" y="800" name="center"/>
  <anchor x="404" y="1500" name="top"/>
  <anchor x="673" y="920" name="topright"/>
  <outline>
    <contour>
      <point x="590" y="1500" type="line"/>
      <point x="28" y="1500" type="line"/>
      <point x="28" y="1428" type="line"/>
      <point x="210" y="1428" type="line"/>
      <point x="210" y="72" type="line"/>
      <point x="28" y="72" type="line"/>
      <point x="28" y="0" type="line"/>
      <point x="770" y="0" type="line"/>
      <point x="770" y="72" type="line"/>
      <point x="590" y="72" type="line"/>
    </contour>
  </outline>
</glyph>
<glyph name="y" format="2">
  <advance width="1310"/>
  <unicode hex="0079"/>
  <anchor x="576" y="-500" name="bottom"/>
  <anchor x="736" y="920" name="top"/>
  <outline>
    <contour>
      <point x="620" y="848" type="line"/>
      <point x="815" y="848" type="line"/>
      <point x="815" y="920" type="line"/>
      <point x="-29" y="920" type="line"/>
      <point x="-29" y="848" type="line"/>
      <point x="152" y="848" type="line"/>
      <point x="653" y="-54" type="line"/>
      <point x="884" y="356" type="line"/>
    </contour>
    <contour>
      <point x="1340" y="920" type="line"/>
      <point x="917" y="920" type="line"/>
      <point x="917" y="848" type="line"/>
      <point x="1105" y="848" type="line"/>
      <point x="512" y="-286" type="line"/>
      <point x="490" y="-189"/>
      <point x="395" y="-119"/>
      <point x="308" y="-119" type="curve" smooth="yes"/>
      <point x="194" y="-119"/>
      <point x="97" y="-214"/>
      <point x="97" y="-330" type="curve" smooth="yes"/>
      <point x="97" y="-456"/>
      <point x="220" y="-527"/>
      <point x="320" y="-527" type="curve" smooth="yes"/>
      <point x="436" y="-527"/>
      <point x="525" y="-426"/>
      <point x="593" y="-296" type="curve" smooth="yes"/>
      <point x="1192" y="848" type="line"/>
      <point x="1340" y="848" type="line"/>
    </contour>
  </outline>
</glyph>
<glyph name="bar" format="2">
  <advance width="492"/>
  <unicode hex="007C"/>
  <outline>
    <contour>
      <point x="210" y="-500" type="line"/>
      <point x="284" y="-500" type="line"/>
      <point x="284" y="1560" type="line"/>
      <point x="210" y="1560" type="line"/>
    </contour>
  </outline>
</glyph>
<glyph name="copyright" format="2">
  <advance width="1738"/>
  <unicode hex="00A9"/>
  <anchor x="888" y="1200" name="top"/>
  <outline>
    <contour>
      <point x="900" y="343" type="curve" smooth="yes"/>
      <point x="751" y="343"/>
      <point x="714" y="532"/>
      <point x="714" y="750" type="curve" smooth="yes"/>
      <point x="714" y="968"/>
      <point x="751" y="1157"/>
      <point x="900" y="1157" type="curve" smooth="yes"/>
      <point x="1015" y="1157"/>
      <point x="1074" y="1067"/>
      <point x="1162" y="917" type="curve"/>
      <point x="1206" y="917" type="line"/>
      <point x="1206" y="1200" type="line"/>
      <point x="1169" y="1200" type="line"/>
      <point x="1057" y="1146" type="line"/>
      <point x="1010" y="1188"/>
      <point x="956" y="1212"/>
      <point x="888" y="1212" type="curve" smooth="yes"/>
      <point x="596" y="1212"/>
      <point x="432" y="1016"/>
      <point x="432" y="750" type="curve" smooth="yes"/>
      <point x="432" y="484"/>
      <point x="596" y="288"/>
      <point x="888" y="288" type="curve" smooth="yes"/>
      <point x="963" y="288"/>
      <point x="1023" y="312"/>
      <point x="1072" y="352" type="curve"/>
      <point x="1180" y="300" type="line"/>
      <point x="1219" y="300" type="line"/>
      <point x="1219" y="583" type="line"/>
      <point x="1174" y="583" type="line"/>
      <point x="1086" y="446"/>
      <point x="1052" y="343"/>
    </contour>
    <contour>
      <point x="870" y="1520" type="curve" smooth="yes"/>
      <point x="444" y="1520"/>
      <point x="100" y="1176"/>
      <point x="100" y="750" type="curve" smooth="yes"/>
      <point x="100" y="324"/>
      <point x="444" y="-20"/>
      <point x="870" y="-20" type="curve" smooth="yes"/>
      <point x="1296" y="-20"/>
      <point x="1640" y="324"/>
      <point x="1640" y="750" type="curve" smooth="yes"/>
      <point x="1640" y="1176"/>
      <point x="1296" y="1520"/>
    </contour>
    <contour>
      <point x="870" y="52" type="curve" smooth="yes"/>
      <point x="486" y="52"/>
      <point x="174" y="366"/>
      <point x="174" y="750" type="curve" smooth="yes"/>
      <point x="174" y="1134"/>
      <point x="486" y="1448"/>
      <point x="870" y="1448" type="curve" smooth="yes"/>
      <point x="1254" y="1448"/>
      <point x="1566" y="1134"/>
      <point x="1566" y="750" type="curve" smooth="yes"/>
      <point x="1566" y="366"/>
      <point x="1254" y="52"/>
    </contour>
  </outline>
</glyph>
<glyph name="ordfeminine" format="2">
  <advance width="804"/>
  <unicode hex="00AA"/>
  <anchor x="352.6" y="964" name="bottom"/>
  <anchor x="629.2" y="964" name="ogonek"/>
  <anchor x="370.6" y="1516" name="top"/>
  <outline>
    <contour>
      <point x="557.8" y="952" type="curve" smooth="yes"/>
      <point x="651.4" y="952"/>
      <point x="730" y="982.6"/>
      <point x="751.6" y="1040.8" type="curve"/>
      <point x="721.6" y="1058.2" type="line"/>
      <point x="707.2" y="1032.4"/>
      <point x="678.4" y="1022.2"/>
      <point x="659.8" y="1022.2" type="curve" smooth="yes"/>
      <point x="628" y="1022.2"/>
      <point x="621.4" y="1045.6"/>
      <point x="621.4" y="1075.6" type="curve" smooth="yes"/>
      <point x="621.4" y="1329.4" type="line" smooth="yes"/>
      <point x="621.4" y="1456.6"/>
      <point x="512.8" y="1525.6"/>
      <point x="311.8" y="1525.6" type="curve" smooth="yes"/>
      <point x="202.6" y="1525.6"/>
      <point x="74.2" y="1495.6"/>
      <point x="74.2" y="1391.2" type="curve" smooth="yes"/>
      <point x="74.2" y="1330"/>
      <point x="127" y="1289.2"/>
      <point x="199.6" y="1289.2" type="curve" smooth="yes"/>
      <point x="268.6" y="1289.2"/>
      <point x="328" y="1327.6"/>
      <point x="328" y="1393.6" type="curve" smooth="yes"/>
      <point x="328" y="1458.4"/>
      <point x="269.8" y="1493.2"/>
      <point x="199.6" y="1493.2" type="curve" smooth="yes"/>
      <point x="131.8" y="1493.2"/>
      <point x="75.4" y="1450"/>
      <point x="75.4" y="1391.2" type="curve"/>
      <point x="129.4" y="1391.2" type="line"/>
      <point x="129.4" y="1461.4"/>
      <point x="219.4" y="1486"/>
      <point x="275.8" y="1486" type="curve" smooth="yes"/>
      <point x="371.8" y="1486"/>
      <point x="393.4" y="1415.8"/>
      <point x="393.4" y="1329.4" type="curve" smooth="yes"/>
      <point x="393.4" y="1060" type="line" smooth="yes"/>
      <point x="393.4" y="989.2"/>
      <point x="459.4" y="952"/>
    </contour>
    <contour>
      <point x="203.2" y="952" type="curve" smooth="yes"/>
      <point x="325" y="952"/>
      <point x="423.4" y="1043.2"/>
      <point x="423.4" y="1180.6" type="curve"/>
      <point x="393.4" y="1180.6" type="line"/>
      <point x="393.4" y="1082.8"/>
      <point x="353.2" y="1057"/>
      <point x="320.8" y="1057" type="curve" smooth="yes"/>
      <point x="293.8" y="1057"/>
      <point x="274.6" y="1081.6"/>
      <point x="274.6" y="1135.6" type="curve" smooth="yes"/>
      <point x="274.6" y="1189"/>
      <point x="297.4" y="1240.6"/>
      <point x="373" y="1240.6" type="curve" smooth="yes"/>
      <point x="449.2" y="1240.6" type="line"/>
      <point x="449.2" y="1277.8" type="line"/>
      <point x="301" y="1277.8" type="line" smooth="yes"/>
      <point x="130.6" y="1277.8"/>
      <point x="32.2" y="1207"/>
      <point x="32.2" y="1100.2" type="curve" smooth="yes"/>
      <point x="32.2" y="1009"/>
      <point x="99.4" y="952"/>
    </contour>
  </outline>
</glyph>
<glyph name="onesuperior" format="2">
  <advance width="1058"/>
  <unicode hex="00B9"/>
  <outline>
    <contour>
      <point x="404" y="924" type="line"/>
      <point x="662" y="924" type="line"/>
      <point x="662" y="1812" type="line"/>
      <point x="268.4" y="1812" type="line"/>
      <point x="268.4" y="1768.8" type="line"/>
      <point x="404" y="1768.8" type="line"/>
    </contour>
    <contour>
      <point x="248" y="912" type="line"/>
      <point x="794" y="912" type="line"/>
      <point x="794" y="955.2" type="line"/>
      <point x="248" y="955.2" type="line"/>
    </contour>
  </outline>
</glyph>
<glyph name="ordmasculine" format="2">
  <advance width="1154"/>
  <unicode hex="00BA"/>
  <anchor x="575.4" y="962" name="bottom"/>
  <anchor x="574.8" y="1514" name="top"/>
  <outline>
    <contour>
      <point x="574.8" y="950" type="curve" smooth="yes"/>
      <point x="768" y="950"/>
      <point x="885.6" y="1082"/>
      <point x="885.6" y="1238" type="curve" smooth="yes"/>
      <point x="885.6" y="1394"/>
      <point x="768" y="1526"/>
      <point x="574.8" y="1526" type="curve" smooth="yes"/>
      <point x="381.6" y="1526"/>
      <point x="264" y="1394"/>
      <point x="264" y="1238" type="curve" smooth="yes"/>
      <point x="264" y="1082"/>
      <point x="381.6" y="950"/>
    </contour>
    <contour>
      <point x="574.8" y="993.2" type="curve" smooth="yes"/>
      <point x="528" y="993.2"/>
      <point x="498" y="1065.2"/>
      <point x="498" y="1238" type="curve" smooth="yes"/>
      <point x="498" y="1410.8"/>
      <point x="528" y="1482.8"/>
      <point x="574.8" y="1482.8" type="curve" smooth="yes"/>
      <point x="621.6" y="1482.8"/>
      <point x="651.6" y="1410.8"/>
      <point x="651.6" y="1238" type="curve" smooth="yes"/>
      <point x="651.6" y="1065.2"/>
      <point x="621.6" y="993.2"/>
    </contour>
  </outline>
</glyph>
<glyph name="onehalf" format="2">
  <advance width="1458"/>
  <unicode hex="00BD"/>
  <outline>
    <contour>
      <point x="84" y="-200" type="line"/>
      <point x="160" y="-200" type="line"/>
      <point x="1124" y="1300" type="line"/>
      <point x="1052" y="1300" type="line"/>
    </contour>
    <contour>
      <point x="44" y="712" type="line"/>
      <point x="590" y="712" type="line"/>
      <point x="590" y="755.2" type="line"/>
      <point x="44" y="755.2" type="line"/>
    </contour>
    <contour>
      <point x="730" y="-202" type="line"/>
      <point x="1419.4" y="-202" type="line"/>
      <point x="1419.4" y="140" type="line"/>
      <point x="1376.2" y="140" type="line"/>
      <point x="1376.2" y="50" type="line"/>
      <point x="950.8" y="50" type="line"/>
      <point x="1172.8" y="188" type="line" smooth="yes"/>
      <point x="1287.4" y="259.4"/>
      <point x="1394.8" y="338.6"/>
      <point x="1394.8" y="482.6" type="curve" smooth="yes"/>
      <point x="1394.8" y="614.6"/>
      <point x="1271.2" y="710"/>
      <point x="1072" y="710" type="curve" smooth="yes"/>
      <point x="874.6" y="710"/>
      <point x="740.2" y="600.8"/>
      <point x="740.2" y="448.4" type="curve" smooth="yes"/>
      <point x="740.2" y="350"/>
      <point x="814" y="286.4"/>
      <point x="892" y="286.4" type="curve" smooth="yes"/>
      <point x="970" y="286.4"/>
      <point x="1039" y="345.2"/>
      <point x="1039" y="429.2" type="curve" smooth="yes"/>
      <point x="1039" y="507.2"/>
      <point x="968.2" y="568.4"/>
      <point x="896.8" y="568.4" type="curve" smooth="yes"/>
      <point x="821.2" y="568.4"/>
      <point x="741.4" y="508.4"/>
      <point x="741.4" y="448.4" type="curve"/>
      <point x="782.2" y="448.4" type="line"/>
      <point x="782.2" y="586.4"/>
      <point x="884.2" y="637.4"/>
      <point x="961" y="637.4" type="curve" smooth="yes"/>
      <point x="1064.2" y="637.4"/>
      <point x="1130.8" y="555.8"/>
      <point x="1130.8" y="410" type="curve" smooth="yes"/>
      <point x="1130.8" y="261.2"/>
      <point x="1078.6" y="183.8"/>
      <point x="971.2" y="114.8" type="curve" smooth="yes"/>
      <point x="730" y="-40" type="line"/>
    </contour>
    <contour>
      <point x="200" y="724" type="line"/>
      <point x="458" y="724" type="line"/>
      <point x="458" y="1612" type="line"/>
      <point x="64.4" y="1612" type="line"/>
      <point x="64.4" y="1568.8" type="line"/>
      <point x="200" y="1568.8" type="line"/>
    </contour>
  </outline>
</glyph>
<glyph name="questiondown" format="2">
  <advance width="1238"/>
  <unicode hex="00BF"/>
  <outline>
    <contour>
      <point x="628" y="-480" type="curve" smooth="yes"/>
      <point x="953" y="-480"/>
      <point x="1120" y="-256"/>
      <point x="1120" y="-92" type="curve" smooth="yes"/>
      <point x="1120" y="40"/>
      <point x="1017" y="131"/>
      <point x="906" y="131" type="curve" smooth="yes"/>
      <point x="806" y="131"/>
      <point x="692" y="50"/>
      <point x="692" y="-80" type="curve" smooth="yes"/>
      <point x="692" y="-200"/>
      <point x="797" y="-289"/>
      <point x="906" y="-289" type="curve" smooth="yes"/>
      <point x="1013" y="-289"/>
      <point x="1118" y="-202"/>
      <point x="1118" y="-92" type="curve"/>
      <point x="1045" y="-92" type="line"/>
      <point x="1045" y="-242"/>
      <point x="926" y="-389"/>
      <point x="748" y="-389" type="curve" smooth="yes"/>
      <point x="570" y="-389"/>
      <point x="542" y="-268"/>
      <point x="542" y="-80" type="curve" smooth="yes"/>
      <point x="542" y="106"/>
      <point x="594" y="240"/>
      <point x="748" y="302" type="curve"/>
      <point x="748" y="482" type="line"/>
      <point x="674" y="482" type="line"/>
      <point x="674" y="328" type="line"/>
      <point x="312" y="310"/>
      <point x="100" y="150"/>
      <point x="100" y="-80" type="curve" smooth="yes"/>
      <point x="100" y="-320"/>
      <point x="296" y="-480"/>
    </contour>
    <contour>
      <point x="662" y="580" type="curve" smooth="yes"/>
      <point x="794" y="580"/>
      <point x="902" y="688"/>
      <point x="902" y="820" type="curve" smooth="yes"/>
      <point x="902" y="952"/>
      <point x="794" y="1060"/>
      <point x="662" y="1060" type="curve" smooth="yes"/>
      <point x="530" y="1060"/>
      <point x="422" y="952"/>
      <point x="422" y="820" type="curve" smooth="yes"/>
      <point x="422" y="688"/>
      <point x="530" y="580"/>
    </contour>
  </outline>
</glyph>
<glyph name="Oslash" format="2">
  <advance width="1598"/>
  <unicode hex="00D8"/>
  <outline>
    <contour>
      <point x="352" y="-200" type="line"/>
      <point x="425" y="-200" type="line"/>
      <point x="1265" y="1661" type="line"/>
      <point x="1192" y="1661" type="line"/>
    </contour>
    <component base="O"/>
  </outline>
</glyph>
<glyph name="ae" format="2">
  <advance width="1809"/>
  <unicode hex="00E6"/>
  <outline>
    <contour>
      <point x="437" y="-20" type="curve" smooth="yes"/>
      <point x="606" y="-20"/>
      <point x="841" y="39"/>
      <point x="944" y="189" type="curve"/>
      <point x="912" y="193" type="line"/>
      <point x="986" y="51"/>
      <point x="1123" y="-20"/>
      <point x="1291" y="-20" type="curve" smooth="yes"/>
      <point x="1553" y="-20"/>
      <point x="1699" y="112"/>
      <point x="1751" y="286" type="curve"/>
      <point x="1679" y="286" type="line"/>
      <point x="1629" y="158"/>
      <point x="1521" y="64"/>
      <point x="1375" y="64" type="curve" smooth="yes"/>
      <point x="1217" y="64"/>
      <point x="1187" y="212"/>
      <point x="1187" y="460" type="curve" smooth="yes"/>
      <point x="1187" y="474"/>
      <point x="1187" y="488"/>
      <point x="1187" y="502" type="curve"/>
      <point x="1749" y="502" type="line"/>
      <point x="1749" y="720"/>
      <point x="1583" y="940"/>
      <point x="1285" y="940" type="curve" smooth="yes"/>
      <point x="1124" y="940"/>
      <point x="993" y="874"/>
      <point x="920" y="744" type="curve"/>
      <point x="949" y="751" type="line"/>
      <point x="885" y="855"/>
      <point x="749" y="936"/>
      <point x="532" y="936" type="curve" smooth="yes"/>
      <point x="340" y="936"/>
      <point x="132" y="886"/>
      <point x="132" y="712" type="curve" smooth="yes"/>
      <point x="132" y="610"/>
      <point x="224" y="542"/>
      <point x="335" y="542" type="curve" smooth="yes"/>
      <point x="445" y="542"/>
      <point x="553" y="606"/>
      <point x="553" y="716" type="curve" smooth="yes"/>
      <point x="553" y="794"/>
      <point x="489" y="862"/>
      <point x="386" y="862" type="curve"/>
      <point x="373" y="850"/>
      <point x="360" y="839"/>
      <point x="347" y="827" type="curve"/>
      <point x="379" y="855"/>
      <point x="427" y="869"/>
      <point x="477" y="869" type="curve" smooth="yes"/>
      <point x="622" y="869"/>
      <point x="668" y="743"/>
      <point x="668" y="609" type="curve" smooth="yes"/>
      <point x="668" y="524" type="line"/>
      <point x="524" y="524" type="line" smooth="yes"/>
      <point x="240" y="524"/>
      <point x="67" y="395"/>
      <point x="67" y="227" type="curve" smooth="yes"/>
      <point x="67" y="39"/>
      <point x="279" y="-20"/>
    </contour>
    <contour>
      <point x="556" y="84" type="curve" smooth="yes"/>
      <point x="500" y="84"/>
      <point x="470" y="122"/>
      <point x="470" y="256" type="curve" smooth="yes"/>
      <point x="470" y="365"/>
      <point x="512" y="461"/>
      <point x="634" y="461" type="curve" smooth="yes"/>
      <point x="668" y="461" type="line"/>
      <point x="668" y="361" type="line" smooth="yes"/>
      <point x="668" y="159"/>
      <point x="616" y="84"/>
    </contour>
    <contour>
      <point x="1188" y="576" type="line"/>
      <point x="1192" y="759"/>
      <point x="1216" y="868"/>
      <point x="1285" y="868" type="curve" smooth="yes"/>
      <point x="1363" y="868"/>
      <point x="1365" y="752"/>
      <point x="1367" y="576" type="curve"/>
    </contour>
  </outline>
</glyph>
<glyph name="Hbar" format="2">
  <advance width="1698"/>
  <unicode hex="0126"/>
  <outline>
    <contour>
      <point x="28" y="1108" type="line"/>
      <point x="1669.999" y="1108" type="line"/>
      <point x="1669.999" y="1180" type="line"/>
      <point x="28" y="1180" type="line"/>
    </contour>
    <component base="H"/>
  </outline>
</glyph>
<glyph name="circumflexcomb" format="2">
  <unicode hex="0302"/>
  <anchor x="499" y="1500" name="_top"/>
  <outline>
    <contour>
      <point x="171" y="1679" type="line"/>
      <point x="499" y="1845" type="line"/>
      <point x="827" y="1679" type="line"/>
      <point x="865" y="1715" type="line"/>
      <point x="605" y="2035" type="line"/>
      <point x="395" y="2035" type="line"/>
      <point x="135" y="1715" type="line"/>
    </contour>
  </outline>
</glyph>
<glyph name="commaaccentcomb" format="2">
  <unicode hex="0326"/>
  <anchor x="492" y="0" name="_bottom"/>
  <outline>
    <contour>
      <point x="293" y="-797" type="line"/>
      <point x="541" y="-797"/>
      <point x="707" y="-645"/>
      <point x="707" y="-429" type="curve" smooth="yes"/>
      <point x="707" y="-280"/>
      <point x="610" y="-182"/>
      <point x="499" y="-182" type="curve" smooth="yes"/>
      <point x="390" y="-182"/>
      <point x="296" y="-272"/>
      <point x="296" y="-373" type="curve" smooth="yes"/>
      <point x="296" y="-473"/>
      <point x="368" y="-563"/>
      <point x="485" y="-563" type="curve" smooth="yes"/>
      <point x="579" y="-563"/>
      <point x="666" y="-485"/>
      <point x="666" y="-429" type="curve"/>
      <point x="647" y="-429" type="line"/>
      <point x="647" y="-645"/>
      <point x="480" y="-737"/>
      <point x="293" y="-737" type="curve"/>
    </contour>
  </outline>
</glyph>
<glyph name="Germandbls" format="2">
  <advance width="1960"/>
  <unicode hex="1E9E"/>
  <outline>
    <contour>
      <point x="210" y="0" type="line"/>
      <point x="650" y="0" type="line"/>
      <point x="650" y="860" type="line" smooth="yes"/>
      <point x="650" y="1264"/>
      <point x="758" y="1438"/>
      <point x="1186" y="1438" type="curve" smooth="yes"/>
      <point x="1314" y="1438"/>
      <point x="1378" y="1418"/>
      <point x="1434" y="1398" type="curve"/>
      <point x="986" y="830" type="line"/>
      <point x="1156" y="802"/>
      <point x="1306" y="774"/>
      <point x="1388" y="742" type="curve"/>
      <point x="1822" y="1302" type="line"/>
      <point x="1742" y="1388"/>
      <point x="1494" y="1520"/>
      <point x="1186" y="1520" type="curve" smooth="yes"/>
      <point x="640" y="1520"/>
      <point x="210" y="1326"/>
      <point x="210" y="882" type="curve" smooth="yes"/>
    </contour>
    <contour>
      <point x="28" y="0" type="line"/>
      <point x="830" y="0" type="line"/>
      <point x="830" y="72" type="line"/>
      <point x="28" y="72" type="line"/>
    </contour>
    <contour>
      <point x="1281" y="-20" type="curve" smooth="yes"/>
      <point x="1563" y="-20"/>
      <point x="1881" y="130"/>
      <point x="1881" y="430" type="curve" smooth="yes"/>
      <point x="1881" y="691"/>
      <point x="1618" y="830"/>
      <point x="986" y="830" type="curve"/>
      <point x="986" y="757" type="line"/>
      <point x="1294" y="757"/>
      <point x="1441" y="628"/>
      <point x="1441" y="420" type="curve" smooth="yes"/>
      <point x="1441" y="192"/>
      <point x="1380" y="67"/>
      <point x="1202" y="67" type="curve" smooth="yes"/>
      <point x="1026" y="67"/>
      <point x="844" y="201"/>
      <point x="844" y="371" type="curve"/>
      <point x="771" y="371" type="line"/>
      <point x="771" y="281"/>
      <point x="884" y="180"/>
      <point x="995" y="180" type="curve" smooth="yes"/>
      <point x="1104" y="180"/>
      <point x="1208" y="276"/>
      <point x="1208" y="390" type="curve" smooth="yes"/>
      <point x="1208" y="512"/>
      <point x="1116" y="612"/>
      <point x="995" y="612" type="curve" smooth="yes"/>
      <point x="865" y="612"/>
      <point x="769" y="503"/>
      <point x="769" y="371" type="curve" smooth="yes"/>
      <point x="769" y="186"/>
      <point x="947" y="-20"/>
    </contour>
  </outline>
</glyph>
<glyph name="guilsinglleft" format="2">
  <advance width="950"/>
  <unicode hex="2039"/>
  <outline>
    <contour>
      <point x="830" y="290" type="line"/>
      <point x="868" y="326" type="line"/>
      <point x="502" y="776" type="line"/>
      <point x="868" y="1224" type="line"/>
      <point x="830" y="1260" type="line"/>
      <point x="50" y="800" type="line"/>
      <point x="50" y="750" type="line"/>
    </contour>
  </outline>
</glyph>
<glyph name="numero" format="2">
  <advance width="2410"/>
  <unicode hex="2116"/>
  <outline>
    <contour>
      <point x="1850" y="1140" type="curve" smooth="yes"/>
      <point x="1850" y="912"/>
      <point x="1880" y="800"/>
      <point x="1958" y="800" type="curve" smooth="yes"/>
      <point x="2036" y="800"/>
      <point x="2066" y="912"/>
      <point x="2066" y="1140" type="curve" smooth="yes"/>
      <point x="2066" y="1368"/>
      <point x="2036" y="1480"/>
      <point x="1958" y="1480" type="curve" smooth="yes"/>
      <point x="1880" y="1480"/>
      <point x="1850" y="1368"/>
    </contour>
    <contour>
      <point x="1560" y="1140" type="curve" smooth="yes"/>
      <point x="1560" y="1400"/>
      <point x="1734" y="1520"/>
      <point x="1958" y="1520" type="curve" smooth="yes"/>
      <point x="2182" y="1520"/>
      <point x="2356" y="1400"/>
      <point x="2356" y="1140" type="curve" smooth="yes"/>
      <point x="2356" y="880"/>
      <point x="2182" y="760"/>
      <point x="1958" y="760" type="curve" smooth="yes"/>
      <point x="1734" y="760"/>
      <point x="1560" y="880"/>
    </contour>
    <component base="hyphen" xOffset="1598" yOffset="80"/>
    <component base="N"/>
  </outline>
</glyph>
<glyph name="infinity" format="2">
  <advance width="2023"/>
  <unicode hex="221E"/>
  <outline>
    <contour>
      <point x="1504" y="391" type="curve" smooth="yes"/>
      <point x="1242" y="391"/>
      <point x="1091" y="590"/>
      <point x="957" y="770" type="curve" smooth="yes"/>
      <point x="854" y="908"/>
      <point x="742" y="1047"/>
      <point x="619" y="1047" type="curve" smooth="yes"/>
      <point x="496" y="1047"/>
      <point x="471" y="888"/>
      <point x="471" y="770" type="curve"/>
      <point x="70" y="770" type="line"/>
      <point x="70" y="1010"/>
      <point x="237" y="1149"/>
      <point x="509" y="1149" type="curve" smooth="yes"/>
      <point x="771" y="1149"/>
      <point x="920" y="952"/>
      <point x="1056" y="770" type="curve" smooth="yes"/>
      <point x="1158" y="633"/>
      <point x="1271" y="493"/>
      <point x="1394" y="493" type="curve" smooth="yes"/>
      <point x="1507" y="493"/>
      <point x="1542" y="652"/>
      <point x="1542" y="770" type="curve"/>
      <point x="1953" y="770" type="line"/>
      <point x="1953" y="530"/>
      <point x="1776" y="391"/>
    </contour>
    <contour>
      <point x="509" y="391" type="curve" smooth="yes"/>
      <point x="237" y="391"/>
      <point x="70" y="530"/>
      <point x="70" y="770" type="curve"/>
      <point x="471" y="770" type="line"/>
      <point x="471" y="652"/>
      <point x="496" y="493"/>
      <point x="619" y="493" type="curve" smooth="yes"/>
      <point x="742" y="493"/>
      <point x="855" y="633"/>
      <point x="957" y="770" type="curve" smooth="yes"/>
      <point x="1093" y="952"/>
      <point x="1242" y="1149"/>
      <point x="1504" y="1149" type="curve" smooth="yes"/>
      <point x="1776" y="1149"/>
      <point x="1953" y="1010"/>
      <point x="1953" y="770" type="curve"/>
      <point x="1542" y="770" type="line"/>
      <point x="1542" y="888"/>
      <point x="1507" y="1047"/>
      <point x="1394" y="1047" type="curve" smooth="yes"/>
      <point x="1271" y="1047"/>
      <point x="1159" y="908"/>
      <point x="1056" y="770" type="curve" smooth="yes"/>
      <point x="922" y="590"/>
      <point x="771" y="391"/>
    </contour>
  </outline>
</glyph>
<glyph name="lessequal" format="2">
  <advance width="1119"/>
  <unicode hex="2264"/>
  <outline>
    <contour>
      <point x="120" y="745" type="line"/>
      <point x="1000" y="1146" type="line"/>
      <point x="1000" y="1225" type="line"/>
      <point x="120" y="824" type="line"/>
    </contour>
    <contour>
      <point x="120.024" y="44" type="line"/>
      <point x="1000.499" y="44" type="line"/>
      <point x="1000.499" y="116" type="line"/>
      <point x="120.024" y="116" type="line"/>
    </contour>
    <contour>
      <point x="1000" y="326" type="line"/>
      <point x="1000" y="404" type="line"/>
      <point x="120" y="805" type="line"/>
      <point x="120" y="726" type="line"/>
    </contour>
  </outline>
</glyph>
<glyph name="uniF8E8" format="2">
  <advance width="1118"/>
  <unicode hex="F8E8"/>
  <anchor x="582.96" y="857.6" name="bottom"/>
  <anchor x="434.64" y="857.6" name="cedilla"/>
  <anchor x="531.84" y="1397.6" name="top"/>
  <outline>
    <contour>
      <point x="558" y="668" type="curve" smooth="yes"/>
      <point x="813.6" y="668"/>
      <point x="1020" y="874.4"/>
      <point x="1020" y="1130" type="curve" smooth="yes"/>
      <point x="1020" y="1385.6"/>
      <point x="813.6" y="1592"/>
      <point x="558" y="1592" type="curve" smooth="yes"/>
      <point x="302.4" y="1592"/>
      <point x="96" y="1385.6"/>
      <point x="96" y="1130" type="curve" smooth="yes"/>
      <point x="96" y="874.4"/>
      <point x="302.4" y="668"/>
    </contour>
    <contour>
      <point x="295.8" y="857.6" type="line"/>
      <point x="580.8" y="857.6" type="line"/>
      <point x="580.8" y="883.4" type="line"/>
      <point x="295.8" y="883.4" type="line"/>
    </contour>
    <contour>
      <point x="361.2" y="857.6" type="line"/>
      <point x="516" y="857.6" type="line"/>
      <point x="516" y="1397.6" type="line"/>
      <point x="361.2" y="1397.6" type="line"/>
    </contour>
    <contour>
      <point x="739.2" y="850.4" type="curve" smooth="yes"/>
      <point x="793.8" y="850.4"/>
      <point x="835.8" y="861.2"/>
      <point x="847.2" y="867.8" type="curve"/>
      <point x="838.8" y="893.6" type="line"/>
      <point x="828.6" y="889.4"/>
      <point x="818.4" y="886.4"/>
      <point x="803.4" y="886.4" type="curve" smooth="yes"/>
      <point x="714.6" y="886.4"/>
      <point x="856.8" y="1134.8"/>
      <point x="631.2" y="1134.8" type="curve" smooth="yes"/>
      <point x="426.6" y="1134.8" type="line"/>
      <point x="426.6" y="1121" type="line"/>
      <point x="530.4" y="1121" type="line" smooth="yes"/>
      <point x="707.4" y="1121"/>
      <point x="513.6" y="850.4"/>
    </contour>
    <contour>
      <point x="558" y="711.2" type="curve" smooth="yes"/>
      <point x="327.6" y="711.2"/>
      <point x="140.4" y="899.6"/>
      <point x="140.4" y="1130" type="curve" smooth="yes"/>
      <point x="140.4" y="1360.4"/>
      <point x="327.6" y="1548.8"/>
      <point x="558" y="1548.8" type="curve" smooth="yes"/>
      <point x="788.4" y="1548.8"/>
      <point x="975.6" y="1360.4"/>
      <point x="975.6" y="1130" type="curve" smooth="yes"/>
      <point x="975.6" y="899.6"/>
      <point x="788.4" y="711.2"/>
    </contour>
    <contour>
      <point x="426.6" y="1132.4" type="line"/>
      <point x="562.8" y="1132.4" type="line" smooth="yes"/>
      <point x="700.2" y="1132.4"/>
      <point x="786.6" y="1170.8"/>
      <point x="786.6" y="1264.4" type="curve" smooth="yes"/>
      <point x="786.6" y="1358"/>
      <point x="692.4" y="1397.6"/>
      <point x="562.8" y="1397.6" type="curve" smooth="yes"/>
      <point x="295.8" y="1397.6" type="line"/>
      <point x="295.8" y="1371.8" type="line"/>
      <point x="526.8" y="1371.8" type="line" smooth="yes"/>
      <point x="595.8" y="1371.8"/>
      <point x="627.6" y="1357.4"/>
      <point x="627.6" y="1264.4" type="curve" smooth="yes"/>
      <point x="627.6" y="1171.4"/>
      <point x="595.8" y="1148.6"/>
      <point x="526.8" y="1148.6" type="curve" smooth="yes"/>
      <point x="426.6" y="1148.6" type="line"/>
    </contour>
  </outline>
</glyph>
<glyph name="c.sc" format="2">
  <advance width="1188"/>
  <anchor x="632" y="0" name="bottom"/>
  <anchor x="659" y="1020" name="top"/>
  <outline>
    <contour>
      <point x="649" y="-20" type="curve" smooth="yes"/>
      <point x="743" y="-20"/>
      <point x="833" y="20"/>
      <point x="905" y="79" type="curve"/>
      <point x="999" y="0" type="line"/>
      <point x="1063" y="0" type="line"/>
      <point x="1063" y="360" type="line"/>
      <point x="990" y="360" type="line"/>
      <point x="920" y="236"/>
      <point x="837" y="72"/>
      <point x="719" y="72" type="curve" smooth="yes"/>
      <point x="561" y="72"/>
      <point x="529" y="197"/>
      <point x="529" y="510" type="curve" smooth="yes"/>
      <point x="529" y="823"/>
      <point x="560" y="948"/>
      <point x="718" y="948" type="curve" smooth="yes"/>
      <point x="826" y="948"/>
      <point x="909" y="805"/>
      <point x="979" y="660" type="curve"/>
      <point x="1053" y="660" type="line"/>
      <point x="1053" y="1020" type="line"/>
      <point x="989" y="1020" type="line"/>
      <point x="892" y="947" type="line"/>
      <point x="824" y="1002"/>
      <point x="738" y="1040"/>
      <point x="639" y="1040" type="curve" smooth="yes"/>
      <point x="373" y="1040"/>
      <point x="100" y="905"/>
      <point x="100" y="510" type="curve" smooth="yes"/>
      <point x="100" y="115"/>
      <point x="363" y="-20"/>
    </contour>
  </outline>
</glyph>
<glyph name="f_f_l" format="2">
  <advance width="2229"/>
  <outline>
    <contour>
      <point x="22" y="0" type="line"/>
      <point x="2201" y="0" type="line"/>
      <point x="2201" y="73" type="line"/>
      <point x="1242" y="73" type="line"/>
      <point x="1242" y="847" type="line"/>
      <point x="1522" y="847" type="line"/>
      <point x="1522" y="920" type="line"/>
      <point x="1242" y="920" type="line"/>
      <point x="1242" y="1080" type="line" smooth="yes"/>
      <point x="1242" y="1334"/>
      <point x="1316" y="1447"/>
      <point x="1466" y="1447" type="curve" smooth="yes"/>
      <point x="1497" y="1447"/>
      <point x="1525" y="1441"/>
      <point x="1566" y="1420" type="curve"/>
      <point x="1547" y="1433"/>
      <point x="1518" y="1451"/>
      <point x="1513" y="1454" type="curve"/>
      <point x="1430" y="1437"/>
      <point x="1356" y="1370"/>
      <point x="1356" y="1267" type="curve" smooth="yes"/>
      <point x="1356" y="1137"/>
      <point x="1457" y="1068"/>
      <point x="1557" y="1068" type="curve" smooth="yes"/>
      <point x="1668" y="1068"/>
      <point x="1762" y="1150"/>
      <point x="1762" y="1282" type="curve" smooth="yes"/>
      <point x="1762" y="1406"/>
      <point x="1648" y="1520"/>
      <point x="1436" y="1520" type="curve" smooth="yes"/>
      <point x="1146" y="1520"/>
      <point x="882" y="1345"/>
      <point x="882" y="1023" type="curve" smooth="yes"/>
      <point x="882" y="920" type="line"/>
      <point x="22" y="920" type="line"/>
      <point x="22" y="847" type="line"/>
      <point x="882" y="847" type="line"/>
      <point x="882" y="73" type="line"/>
      <point x="22" y="73" type="line"/>
    </contour>
    <contour>
      <point x="202" y="40" type="line"/>
      <point x="562" y="40" type="line"/>
      <point x="562" y="980" type="line" smooth="yes"/>
      <point x="562" y="1238"/>
      <point x="661" y="1347"/>
      <point x="801" y="1347" type="curve" smooth="yes"/>
      <point x="833" y="1347"/>
      <point x="864" y="1343"/>
      <point x="892" y="1334" type="curve"/>
      <point x="892" y="1338"/>
      <point x="893" y="1342"/>
      <point x="893" y="1346" type="curve"/>
      <point x="801" y="1336"/>
      <point x="716" y="1267"/>
      <point x="716" y="1157" type="curve" smooth="yes"/>
      <point x="716" y="1027"/>
      <point x="817" y="958"/>
      <point x="917" y="958" type="curve" smooth="yes"/>
      <point x="1028" y="958"/>
      <point x="1122" y="1040"/>
      <point x="1122" y="1172" type="curve" smooth="yes"/>
      <point x="1122" y="1296"/>
      <point x="983" y="1420"/>
      <point x="751" y="1420" type="curve" smooth="yes"/>
      <point x="451" y="1420"/>
      <point x="202" y="1215"/>
      <point x="202" y="923" type="curve" smooth="yes"/>
    </contour>
    <contour>
      <point x="1652" y="40" type="line"/>
      <point x="2032" y="40" type="line"/>
      <point x="2032" y="1540" type="line"/>
      <point x="1652" y="1460" type="line"/>
    </contour>
  </outline>
</glyph>
<glyph name="five.osf" format="2">
  <advance width="1139"/>
  <outline>
    <contour>
      <point x="432" y="-525.018" type="curve" smooth="yes"/>
      <point x="784" y="-525.018"/>
      <point x="1079" y="-344.349"/>
      <point x="1079" y="-97.117" type="curve" smooth="yes"/>
      <point x="1079" y="188.15"/>
      <point x="836" y="329.832"/>
      <point x="524" y="329.832" type="curve" smooth="yes"/>
      <point x="242" y="329.832"/>
      <point x="171" y="205.266"/>
      <point x="139" y="134.9" type="curve"/>
      <point x="211" y="134.9" type="line"/>
      <point x="240" y="178.641"/>
      <point x="295" y="236.645"/>
      <point x="400" y="236.645" type="curve" smooth="yes"/>
      <point x="548" y="236.645"/>
      <point x="630" y="120.637"/>
      <point x="630" y="-97.117" type="curve" smooth="yes"/>
      <point x="630" y="-275.885"/>
      <point x="570" y="-463.21"/>
      <point x="372" y="-463.21" type="curve" smooth="yes"/>
      <point x="224" y="-463.21"/>
      <point x="56" y="-374.777"/>
      <point x="56" y="-222.635" type="curve"/>
      <point x="-17" y="-222.635" type="line"/>
      <point x="-17" y="-279.688"/>
      <point x="102" y="-429.929"/>
      <point x="214" y="-429.929" type="curve" smooth="yes"/>
      <point x="333" y="-429.929"/>
      <point x="448" y="-334.84"/>
      <point x="448" y="-211.224" type="curve" smooth="yes"/>
      <point x="448" y="-78.099"/>
      <point x="344" y="9.382"/>
      <point x="214" y="9.382" type="curve" smooth="yes"/>
      <point x="73" y="9.382"/>
      <point x="-19" y="-87.608"/>
      <point x="-19" y="-222.635" type="curve" smooth="yes"/>
      <point x="-19" y="-408.058"/>
      <point x="178" y="-525.018"/>
    </contour>
    <contour>
      <point x="94" y="134.9" type="line"/>
      <point x="167" y="134.9" type="line"/>
      <point x="167" y="520.961" type="line"/>
      <point x="1010" y="520.961" type="line"/>
      <point x="1010" y="1023.982" type="line"/>
      <point x="937" y="1023.982" type="line"/>
      <point x="937" y="920.335" type="line"/>
      <point x="94" y="920.335" type="line"/>
    </contour>
  </outline>
</glyph>
<glyph name="four.alt" format="2">
  <advance width="1428"/>
  <outline>
    <contour>
      <point x="28" y="370" type="curve"/>
      <point x="1330" y="370" type="line"/>
      <point x="1330" y="410" type="line"/>
      <point x="104" y="410" type="line"/>
      <point x="386" y="798"/>
      <point x="1078" y="1108"/>
      <point x="1116" y="1500" type="curve"/>
      <point x="640" y="1500" type="line"/>
      <point x="600" y="1200"/>
      <point x="308" y="770"/>
    </contour>
    <contour>
      <point x="528" y="0" type="line"/>
      <point x="1300" y="0" type="line"/>
      <point x="1300" y="40" type="line"/>
      <point x="528" y="40" type="line"/>
    </contour>
    <contour>
      <point x="720" y="-2" type="line"/>
      <point x="1150" y="-2" type="line"/>
      <point x="1150" y="996" type="line"/>
      <point x="1070" y="936"/>
      <point x="840" y="856"/>
      <point x="720" y="856" type="curve"/>
    </contour>
  </outline>
</glyph>
<glyph name="four.osf" format="2">
  <advance width="1368"/>
  <outline>
    <contour>
      <point x="920" y="-1" type="line"/>
      <point x="1350" y="-1" type="line"/>
      <point x="1350" y="73" type="line"/>
      <point x="920" y="73" type="line"/>
    </contour>
    <contour>
      <point x="920" y="73" type="line"/>
      <point x="230" y="73" type="line"/>
      <point x="700" y="628" type="line"/>
      <point x="700" y="-500" type="line"/>
      <point x="1130" y="-500" type="line"/>
      <point x="1130" y="920" type="line"/>
      <point x="830" y="920" type="line"/>
      <point x="70" y="-1" type="line"/>
      <point x="920" y="-1" type="line"/>
    </contour>
  </outline>
</glyph>
<glyph name="oe.sc" format="2">
  <advance width="1803"/>
  <outline>
    <contour>
      <point x="670" y="1020" type="curve"/>
      <point x="700" y="947" type="line"/>
      <point x="562" y="947"/>
      <point x="509" y="773"/>
      <point x="509" y="510" type="curve" smooth="yes"/>
      <point x="509" y="247"/>
      <point x="542" y="73"/>
      <point x="700" y="73" type="curve"/>
      <point x="670" y="0" type="line"/>
      <point x="314" y="0"/>
      <point x="80" y="184"/>
      <point x="80" y="510" type="curve" smooth="yes"/>
      <point x="80" y="836"/>
      <point x="333" y="1020"/>
    </contour>
    <component base="e.sc" xOffset="585"/>
  </outline>
</glyph>
<glyph name="r.sc" format="2">
  <advance width="1517"/>
  <anchor x="883" y="0" name="bottom"/>
  <anchor x="471" y="0" name="cedilla"/>
  <anchor x="741" y="1010" name="top"/>
  <outline>
    <contour>
      <point x="449" y="514" type="line"/>
      <point x="827" y="514" type="line" smooth="yes"/>
      <point x="1209" y="514"/>
      <point x="1349" y="590"/>
      <point x="1349" y="750" type="curve" smooth="yes"/>
      <point x="1349" y="910"/>
      <point x="1237" y="1010"/>
      <point x="877" y="1010" type="curve" smooth="yes"/>
      <point x="85" y="1010" type="line"/>
      <point x="85" y="938" type="line"/>
      <point x="727" y="938" type="line" smooth="yes"/>
      <point x="849" y="938"/>
      <point x="907" y="888"/>
      <point x="907" y="750" type="curve" smooth="yes"/>
      <point x="907" y="603"/>
      <point x="849" y="558"/>
      <point x="727" y="558" type="curve" smooth="yes"/>
      <point x="449" y="558" type="line"/>
    </contour>
    <contour>
      <point x="85" y="0" type="line"/>
      <point x="817" y="0" type="line"/>
      <point x="817" y="72" type="line"/>
      <point x="85" y="72" type="line"/>
    </contour>
    <contour>
      <point x="267" y="0" type="line"/>
      <point x="697" y="0" type="line"/>
      <point x="697" y="1010" type="line"/>
      <point x="267" y="1010" type="line"/>
    </contour>
    <contour>
      <point x="1217" y="-20" type="curve" smooth="yes"/>
      <point x="1369" y="-20"/>
      <point x="1485" y="10"/>
      <point x="1517" y="28" type="curve"/>
      <point x="1493" y="100" type="line"/>
      <point x="1465" y="88"/>
      <point x="1437" y="80"/>
      <point x="1395" y="80" type="curve" smooth="yes"/>
      <point x="1149" y="80"/>
      <point x="1543" y="520"/>
      <point x="917" y="520" type="curve" smooth="yes"/>
      <point x="449" y="520" type="line"/>
      <point x="449" y="482" type="line"/>
      <point x="637" y="482" type="line" smooth="yes"/>
      <point x="1129" y="482"/>
      <point x="591" y="-20"/>
    </contour>
  </outline>
</glyph>
<glyph name="tbar.sc" format="2">
  <advance width="1197"/>
  <outline>
    <contour>
      <point x="263" y="451" type="line"/>
      <point x="1033.002" y="451" type="line"/>
      <point x="1033.002" y="523" type="line"/>
      <point x="263" y="523" type="line"/>
    </contour>
    <component base="t.sc"/>
  </outline>
</glyph>
<glyph name="thorn.sc" format="2">
  <advance width="1365"/>
  <anchor x="491" y="0" name="bottom"/>
  <anchor x="491" y="0" name="cedilla"/>
  <anchor x="495" y="1020" name="top"/>
  <outline>
    <contour>
      <point x="505" y="194" type="line"/>
      <point x="715" y="194" type="line" smooth="yes"/>
      <point x="1116" y="194"/>
      <point x="1305" y="299"/>
      <point x="1305" y="509" type="curve" smooth="yes"/>
      <point x="1305" y="719"/>
      <point x="1116" y="825"/>
      <point x="715" y="825" type="curve" smooth="yes"/>
      <point x="535" y="825" type="line"/>
      <point x="535" y="752" type="line"/>
      <point x="715" y="752" type="line" smooth="yes"/>
      <point x="806" y="752"/>
      <point x="846" y="637"/>
      <point x="846" y="509" type="curve" smooth="yes"/>
      <point x="846" y="381"/>
      <point x="806" y="266"/>
      <point x="715" y="266" type="curve" smooth="yes"/>
      <point x="505" y="266" type="line"/>
    </contour>
    <contour>
      <point x="85" y="0" type="line"/>
      <point x="875" y="0" type="line"/>
      <point x="875" y="73" type="line"/>
      <point x="85" y="73" type="line"/>
    </contour>
    <contour>
      <point x="256" y="0" type="line"/>
      <point x="685" y="0" type="line"/>
      <point x="685" y="1020" type="line"/>
      <point x="256" y="1020" type="line"/>
    </contour>
    <contour>
      <point x="85" y="947" type="line"/>
      <point x="875" y="947" type="line"/>
      <point x="875" y="1020" type="line"/>
      <point x="85" y="1020" type="line"/>
    </contour>
  </outline>
</glyph>
<glyph name="u.sc" format="2">
  <advance width="1258"/>
  <anchor x="708" y="0" name="bottom"/>
  <anchor x="708" y="0" name="cedilla"/>
  <anchor x="736" y="1020" name="top"/>
  <outline>
    <contour>
      <point x="672" y="-28" type="curve" smooth="yes"/>
      <point x="1008" y="-28"/>
      <point x="1080" y="130"/>
      <point x="1080" y="360" type="curve" smooth="yes"/>
      <point x="1080" y="1020" type="line"/>
      <point x="1004" y="1020" type="line"/>
      <point x="1004" y="360" type="line" smooth="yes"/>
      <point x="1004" y="156"/>
      <point x="940" y="72"/>
      <point x="802" y="72" type="curve" smooth="yes"/>
      <point x="644" y="72"/>
      <point x="612" y="216"/>
      <point x="612" y="380" type="curve" smooth="yes"/>
      <point x="612" y="1020" type="line"/>
      <point x="182" y="1020" type="line"/>
      <point x="182" y="360" type="line" smooth="yes"/>
      <point x="182" y="114"/>
      <point x="266" y="-28"/>
    </contour>
    <contour>
      <point x="50" y="948" type="line"/>
      <point x="762" y="948" type="line"/>
      <point x="762" y="1020" type="line"/>
      <point x="50" y="1020" type="line"/>
    </contour>
    <contour>
      <point x="886" y="948" type="line"/>
      <point x="1208" y="948" type="line"/>
      <point x="1208" y="1020" type="line"/>
      <point x="886" y="1020" type="line"/>
    </contour>
  </outline>
</glyph>
